<svg xmlns="http://www.w3.org/2000/svg" xmlns:xlink="http://www.w3.org/1999/xlink" width="63" height="63" viewBox="0 0 63 63"><defs><style>.a{fill:#fff;}.b{opacity:0.3;}.c{opacity:0;}.d{filter:url(#a);}</style><filter id="a" x="0" y="0" width="63" height="63" filterUnits="userSpaceOnUse"><feOffset dy="3" input="SourceAlpha"/><feGaussianBlur stdDeviation="3" result="b"/><feFlood flood-opacity="0.161"/><feComposite operator="in" in2="b"/><feComposite in="SourceGraphic"/></filter></defs><g transform="translate(8.549 6)"><g class="d" transform="matrix(1, 0, 0, 1, -8.55, -6)"><circle class="a" cx="22.5" cy="22.5" r="22.5" transform="translate(9 6)"/></g><g class="b" transform="translate(11 11)"><rect class="c" width="24" height="24" transform="translate(0.451)"/><path d="M19,3H5A3,3,0,0,0,2,6V21a1,1,0,0,0,1.51.86L8,19.14A1,1,0,0,1,8.55,19H19a3,3,0,0,0,3-3V6A3,3,0,0,0,19,3ZM8,12a1,1,0,1,1,1-1A1,1,0,0,1,8,12Zm4,0a1,1,0,1,1,1-1A1,1,0,0,1,12,12Zm4,0a1,1,0,1,1,1-1A1,1,0,0,1,16,12Z" transform="translate(-0.318)"/></g></g></svg>