<svg xmlns="http://www.w3.org/2000/svg" width="21.7" height="27.389" viewBox="0 0 21.7 27.389"><defs><style>.a{fill:#4a77c3;}</style></defs><path class="a" d="M15.26.212A.663.663,0,0,0,14.784,0H4.1A3.614,3.614,0,0,0,.5,3.592V23.8a3.614,3.614,0,0,0,3.6,3.593H18.6A3.614,3.614,0,0,0,22.2,23.8V7.754a.712.712,0,0,0-.192-.463Zm.192,2.124L19.97,7.079H17.033A1.576,1.576,0,0,1,15.452,5.5ZM18.6,26.066H4.1A2.292,2.292,0,0,1,1.823,23.8V3.592A2.292,2.292,0,0,1,4.1,1.323H14.128V5.5a2.894,2.894,0,0,0,2.9,2.9h3.844V23.8A2.287,2.287,0,0,1,18.6,26.066Zm0,0" transform="translate(-0.5)"/><path class="a" d="M100.723,401.934H89.833a.662.662,0,1,0,0,1.323h10.9a.662.662,0,1,0-.007-1.323Zm0,0" transform="translate(-84.428 -380.432)"/><path class="a" d="M119.538,175.57l2.726-2.931v7.225a.662.662,0,1,0,1.323,0v-7.225l2.726,2.931a.66.66,0,0,0,.966-.9l-3.877-4.161a.657.657,0,0,0-.966,0l-3.877,4.161a.659.659,0,0,0,.033.933A.675.675,0,0,0,119.538,175.57Zm0,0" transform="translate(-112.076 -161.187)"/></svg>