<svg xmlns="http://www.w3.org/2000/svg" xmlns:xlink="http://www.w3.org/1999/xlink" width="63" height="63" viewBox="0 0 63 63"><defs><style>.a{fill:#fff;}.b,.c{fill:#ff4141;}.b{opacity:0;}.d{filter:url(#a);}</style><filter id="a" x="0" y="0" width="63" height="63" filterUnits="userSpaceOnUse"><feOffset dy="3" input="SourceAlpha"/><feGaussianBlur stdDeviation="3" result="b"/><feFlood flood-opacity="0.161"/><feComposite operator="in" in2="b"/><feComposite in="SourceGraphic"/></filter></defs><g transform="translate(9 6)"><g class="d" transform="matrix(1, 0, 0, 1, -9, -6)"><circle class="a" cx="22.5" cy="22.5" r="22.5" transform="translate(9 6)"/></g><g transform="translate(11 11)"><rect class="b" width="24" height="24"/><path class="c" d="M12,21a1,1,0,0,1-.71-.29L3.52,12.93a5.233,5.233,0,1,1,7.4-7.4L12,6.61l1.08-1.08a5.233,5.233,0,1,1,7.4,7.4l-7.77,7.78A1,1,0,0,1,12,21Z"/></g></g></svg>