<svg xmlns="http://www.w3.org/2000/svg" xmlns:xlink="http://www.w3.org/1999/xlink" width="63" height="63" viewBox="0 0 63 63"><defs><style>.a{fill:#fff;}.b,.c{fill:#ffeb00;}.b{opacity:0;}.d{filter:url(#a);}</style><filter id="a" x="0" y="0" width="63" height="63" filterUnits="userSpaceOnUse"><feOffset dy="3" input="SourceAlpha"/><feGaussianBlur stdDeviation="3" result="b"/><feFlood flood-opacity="0.161"/><feComposite operator="in" in2="b"/><feComposite in="SourceGraphic"/></filter></defs><g transform="translate(9 6)"><g class="d" transform="matrix(1, 0, 0, 1, -9, -6)"><circle class="a" cx="22.5" cy="22.5" r="22.5" transform="translate(9 6)"/></g><g transform="translate(11 11)"><rect class="b" width="24" height="24"/><path class="c" d="M13.67,22h-.06a1,1,0,0,1-.92-.8l-1.54-7.57a1,1,0,0,0-.78-.78L2.8,11.31a1,1,0,0,1-.12-1.93l16-5.33A1,1,0,0,1,20,5.32l-5.33,16A1,1,0,0,1,13.67,22Z"/></g></g></svg>